M48
; DRILL file {KiCad 9.0.4} date 2025-11-28T19:34:20+0900
; FORMAT={-:-/ absolute / metric / decimal}
; #@! TF.CreationDate,2025-11-28T19:34:20+09:00
; #@! TF.GenerationSoftware,Kicad,Pcbnew,9.0.4
; #@! TF.FileFunction,NonPlated,1,2,NPTH
FMAT,2
METRIC
; #@! TA.AperFunction,NonPlated,NPTH,ComponentDrill
T1C0.800
; #@! TA.AperFunction,NonPlated,NPTH,ComponentDrill
T2C1.702
; #@! TA.AperFunction,NonPlated,NPTH,ComponentDrill
T3C3.988
%
G90
G05
T1
X119.9Y-116.5
X119.9Y-116.5
X126.9Y-116.5
X126.9Y-116.5
T2
X43.0Y-102.92
X43.0Y-113.08
X50.125Y-64.92
X50.125Y-75.08
X50.125Y-83.92
X50.125Y-94.08
X56.92Y-108.0
X66.42Y-65.0
X66.42Y-84.0
X67.08Y-108.0
X75.92Y-103.0
X76.58Y-65.0
X76.58Y-84.0
X85.42Y-62.0
X85.42Y-81.0
X86.08Y-103.0
X90.5Y-123.92
X90.5Y-134.08
X94.92Y-100.0
X95.58Y-62.0
X95.58Y-81.0
X104.42Y-62.0
X104.42Y-81.0
X104.42Y-131.0
X105.08Y-100.0
X113.92Y-100.0
X114.58Y-62.0
X114.58Y-81.0
X114.58Y-131.0
X124.08Y-100.0
X128.5Y-56.92
X128.5Y-67.08
X128.5Y-75.92
X128.5Y-86.08
X133.25Y-129.92
X133.25Y-140.08
X138.0Y-94.92
X138.0Y-105.08
T3
X43.0Y-108.0
X50.125Y-70.0
X50.125Y-89.0
X62.0Y-108.0
X71.5Y-65.0
X71.5Y-84.0
X81.0Y-103.0
X90.5Y-62.0
X90.5Y-81.0
X90.5Y-129.0
X100.0Y-100.0
X109.5Y-62.0
X109.5Y-81.0
X109.5Y-131.0
X119.0Y-100.0
X128.5Y-62.0
X128.5Y-81.0
X133.25Y-135.0
X138.0Y-100.0
M30
