%TF.GenerationSoftware,KiCad,Pcbnew,9.0.4*%
%TF.CreationDate,2025-11-28T07:35:20+09:00*%
%TF.ProjectId,modubuSolder,6d6f6475-6275-4536-9f6c-6465722e6b69,rev?*%
%TF.SameCoordinates,Original*%
%TF.FileFunction,Paste,Top*%
%TF.FilePolarity,Positive*%
%FSLAX46Y46*%
G04 Gerber Fmt 4.6, Leading zero omitted, Abs format (unit mm)*
G04 Created by KiCad (PCBNEW 9.0.4) date 2025-11-28 07:35:20*
%MOMM*%
%LPD*%
G01*
G04 APERTURE LIST*
%ADD10R,0.940000X1.400000*%
G04 APERTURE END LIST*
D10*
%TO.C,D8*%
X97000001Y-116274999D03*
X96999999Y-112725001D03*
%TD*%
%TO.C,D14*%
X112000001Y-116274998D03*
X111999999Y-112725000D03*
%TD*%
%TO.C,D16*%
X84500001Y-117275001D03*
X84499999Y-113725003D03*
%TD*%
%TO.C,D9*%
X99500001Y-116274998D03*
X99499999Y-112725000D03*
%TD*%
%TO.C,D3*%
X65000001Y-97774999D03*
X64999999Y-94225001D03*
%TD*%
%TO.C,D1*%
X60000001Y-97774999D03*
X59999999Y-94225001D03*
%TD*%
%TO.C,D6*%
X92000001Y-116274999D03*
X91999999Y-112725001D03*
%TD*%
%TO.C,D11*%
X104500001Y-116274999D03*
X104499999Y-112725001D03*
%TD*%
%TO.C,D15*%
X114500001Y-116274999D03*
X114499999Y-112725001D03*
%TD*%
%TO.C,D12*%
X107000001Y-116275000D03*
X106999999Y-112725002D03*
%TD*%
%TO.C,D2*%
X62500001Y-97775000D03*
X62499999Y-94225002D03*
%TD*%
%TO.C,D13*%
X109500001Y-116274999D03*
X109499999Y-112725001D03*
%TD*%
%TO.C,D10*%
X102000001Y-116274999D03*
X101999999Y-112725001D03*
%TD*%
%TO.C,D7*%
X94500001Y-116275000D03*
X94499999Y-112725002D03*
%TD*%
%TO.C,D4*%
X67500001Y-97774998D03*
X67499999Y-94225000D03*
%TD*%
%TO.C,D17*%
X87000001Y-117275000D03*
X86999999Y-113725002D03*
%TD*%
%TO.C,D19*%
X82000001Y-117275000D03*
X81999999Y-113725002D03*
%TD*%
%TO.C,D18*%
X89500001Y-117274999D03*
X89499999Y-113725001D03*
%TD*%
%TO.C,D5*%
X70000001Y-97774999D03*
X69999999Y-94225001D03*
%TD*%
M02*
