M48
; DRILL file {KiCad 9.0.4} date 2025-11-12T08:08:44+0900
; FORMAT={-:-/ absolute / metric / decimal}
; #@! TF.CreationDate,2025-11-12T08:08:44+09:00
; #@! TF.GenerationSoftware,Kicad,Pcbnew,9.0.4
; #@! TF.FileFunction,Plated,1,2,PTH
FMAT,2
METRIC
; #@! TA.AperFunction,Plated,PTH,ViaDrill
T1C0.300
; #@! TA.AperFunction,Plated,PTH,ComponentDrill
T2C0.813
; #@! TA.AperFunction,Plated,PTH,ComponentDrill
T3C0.850
; #@! TA.AperFunction,Plated,PTH,ComponentDrill
T4C0.900
%
G90
G05
T1
X41.75Y-62.0
X41.75Y-79.75
X41.75Y-98.25
X51.25Y-105.75
X51.25Y-110.25
X53.25Y-110.0
X58.25Y-67.75
X58.25Y-72.25
X58.25Y-86.75
X58.25Y-91.25
X59.75Y-110.5
X60.0Y-75.0
X60.0Y-83.0
X61.0Y-75.0
X62.0Y-75.0
X63.0Y-75.0
X64.0Y-57.75
X64.0Y-75.0
X64.25Y-110.5
X69.25Y-67.5
X69.25Y-86.5
X72.5Y-94.0
X73.5Y-94.0
X73.75Y-67.5
X73.75Y-86.5
X74.5Y-94.0
X75.5Y-94.0
X76.5Y-94.0
X77.0Y-108.5
X77.5Y-90.25
X78.75Y-105.5
X79.8Y-117.0
X80.0Y-57.75
X81.0Y-137.25
X81.25Y-84.75
X83.25Y-54.25
X83.25Y-105.5
X83.5Y-90.5
X84.25Y-134.75
X84.5Y-125.75
X87.0Y-108.75
X88.25Y-64.5
X88.25Y-83.5
X88.25Y-90.75
X89.25Y-90.75
X89.25Y-104.0
X90.0Y-137.5
X90.25Y-90.75
X91.25Y-90.75
X92.25Y-90.75
X92.75Y-64.5
X92.75Y-83.5
X96.6Y-103.8
X96.8Y-100.4
X97.75Y-102.5
X98.0Y-121.25
X98.25Y-135.75
X98.75Y-126.75
X98.75Y-131.25
X99.0Y-121.25
X99.25Y-90.0
X99.25Y-135.75
X99.75Y-67.25
X99.75Y-84.25
X100.0Y-121.25
X100.4Y-94.2
X101.0Y-120.25
X101.25Y-139.25
X102.25Y-102.5
X107.25Y-64.5
X107.25Y-83.5
X107.25Y-133.5
X107.5Y-106.0
X108.0Y-68.0
X108.5Y-106.0
X109.4Y-127.4
X109.5Y-86.5
X109.5Y-106.0
X109.5Y-121.5
X110.5Y-106.0
X111.5Y-106.0
X111.75Y-64.5
X111.75Y-83.5
X111.75Y-133.5
X114.75Y-86.5
X116.75Y-102.5
X117.8Y-121.8
X119.25Y-112.0
X120.25Y-59.75
X120.25Y-64.25
X120.25Y-78.75
X120.25Y-83.25
X120.25Y-143.25
X121.25Y-102.5
X121.5Y-131.25
X123.25Y-126.5
X124.75Y-105.5
X124.75Y-128.0
X125.0Y-132.75
X125.0Y-137.25
X128.25Y-125.25
X129.75Y-97.75
X129.75Y-102.25
X139.25Y-54.25
X139.25Y-71.25
X139.25Y-108.25
X139.25Y-125.25
X139.25Y-143.25
T2
X60.0Y-92.19
X60.0Y-99.81
X62.5Y-92.19
X62.5Y-99.81
X65.0Y-92.19
X65.0Y-99.81
X67.5Y-92.19
X67.5Y-99.81
X70.0Y-92.19
X70.0Y-99.81
X82.0Y-111.69
X82.0Y-119.31
X84.5Y-111.69
X84.5Y-119.31
X87.0Y-111.69
X87.0Y-119.31
X89.5Y-111.69
X89.5Y-119.31
X92.0Y-110.69
X92.0Y-118.31
X94.5Y-110.69
X94.5Y-118.31
X97.0Y-110.69
X97.0Y-118.31
X99.5Y-110.69
X99.5Y-118.31
X102.0Y-110.69
X102.0Y-118.31
X104.5Y-110.69
X104.5Y-118.31
X107.0Y-110.69
X107.0Y-118.31
X109.5Y-110.69
X109.5Y-118.31
X112.0Y-110.69
X112.0Y-118.31
X114.5Y-110.69
X114.5Y-118.31
T3
X57.59Y-119.33
X57.59Y-134.67
X60.13Y-119.33
X60.13Y-134.67
X62.67Y-119.33
X62.67Y-134.67
X65.21Y-119.33
X65.21Y-134.67
X67.75Y-119.33
X67.75Y-134.67
X70.29Y-119.33
X70.29Y-134.67
X72.83Y-119.33
X72.83Y-134.67
X75.37Y-119.33
X75.37Y-134.67
X77.91Y-119.33
X77.91Y-134.67
X77.96Y-121.92
X77.96Y-132.08
X77.96Y-124.46
X77.96Y-129.54
X77.96Y-127.0
T4
G00X117.4Y-114.2
M15
G01X117.0Y-114.2
M16
G05
G00X117.0Y-118.8
M15
G01X117.4Y-118.8
M16
G05
G00X118.1Y-114.2
M15
G01X118.5Y-114.2
M16
G05
G00X118.5Y-118.8
M15
G01X118.1Y-118.8
M16
G05
G00X122.1Y-114.2
M15
G01X122.5Y-114.2
M16
G05
G00X122.5Y-118.8
M15
G01X122.1Y-118.8
M16
G05
G00X125.1Y-114.2
M15
G01X125.5Y-114.2
M16
G05
G00X125.5Y-118.8
M15
G01X125.1Y-118.8
M16
G05
M30
