%TF.GenerationSoftware,KiCad,Pcbnew,9.0.4*%
%TF.CreationDate,2025-11-12T08:08:54+09:00*%
%TF.ProjectId,modubu,6d6f6475-6275-42e6-9b69-6361645f7063,rev?*%
%TF.SameCoordinates,Original*%
%TF.FileFunction,Paste,Bot*%
%TF.FilePolarity,Positive*%
%FSLAX46Y46*%
G04 Gerber Fmt 4.6, Leading zero omitted, Abs format (unit mm)*
G04 Created by KiCad (PCBNEW 9.0.4) date 2025-11-12 08:08:54*
%MOMM*%
%LPD*%
G01*
G04 APERTURE LIST*
%ADD10R,0.940000X1.400000*%
%ADD11R,2.500000X2.550000*%
%ADD12R,2.550000X2.500000*%
G04 APERTURE END LIST*
D10*
%TO.C,D8*%
X97000001Y-116274999D03*
X96999999Y-112725001D03*
%TD*%
%TO.C,D14*%
X112000001Y-116274998D03*
X111999999Y-112725000D03*
%TD*%
D11*
%TO.C,SW19*%
X48080000Y-114290000D03*
X45540000Y-100440000D03*
%TD*%
%TO.C,SW1*%
X55205000Y-76290000D03*
X52665000Y-62440000D03*
%TD*%
D10*
%TO.C,D16*%
X84500001Y-117275001D03*
X84499999Y-113725003D03*
%TD*%
D11*
%TO.C,SW18*%
X128170000Y-128710000D03*
X130710000Y-142560000D03*
%TD*%
D10*
%TO.C,D9*%
X99500001Y-116274998D03*
X99499999Y-112725000D03*
%TD*%
%TO.C,D3*%
X65000001Y-97774999D03*
X64999999Y-94225001D03*
%TD*%
D12*
%TO.C,SW8*%
X96790000Y-75920000D03*
X82940000Y-78460000D03*
%TD*%
D10*
%TO.C,D1*%
X60000001Y-97774999D03*
X59999999Y-94225001D03*
%TD*%
%TO.C,D6*%
X92000001Y-116274999D03*
X91999999Y-112725001D03*
%TD*%
%TO.C,D11*%
X104500001Y-116274999D03*
X104499999Y-112725001D03*
%TD*%
D12*
%TO.C,SW12*%
X87290000Y-97920000D03*
X73440000Y-100460000D03*
%TD*%
D10*
%TO.C,D15*%
X114500001Y-116274999D03*
X114499999Y-112725001D03*
%TD*%
D12*
%TO.C,SW13*%
X106290000Y-94920000D03*
X92440000Y-97460000D03*
%TD*%
D11*
%TO.C,SW6*%
X55205000Y-95290000D03*
X52665000Y-81440000D03*
%TD*%
D10*
%TO.C,D12*%
X107000001Y-116275000D03*
X106999999Y-112725002D03*
%TD*%
D11*
%TO.C,SW10*%
X123420000Y-74710000D03*
X125960000Y-88560000D03*
%TD*%
D10*
%TO.C,D2*%
X62500001Y-97775000D03*
X62499999Y-94225002D03*
%TD*%
D11*
%TO.C,SW16*%
X95580000Y-135290000D03*
X93040000Y-121440000D03*
%TD*%
D12*
%TO.C,SW9*%
X115790000Y-75920000D03*
X101940000Y-78460000D03*
%TD*%
D10*
%TO.C,D13*%
X109500001Y-116274999D03*
X109499999Y-112725001D03*
%TD*%
%TO.C,D10*%
X102000001Y-116274999D03*
X101999999Y-112725001D03*
%TD*%
%TO.C,D7*%
X94500001Y-116275000D03*
X94499999Y-112725002D03*
%TD*%
%TO.C,D4*%
X67500001Y-97774998D03*
X67499999Y-94225000D03*
%TD*%
D12*
%TO.C,SW2*%
X77790000Y-59920000D03*
X63940000Y-62460000D03*
%TD*%
D10*
%TO.C,D17*%
X87000001Y-117275000D03*
X86999999Y-113725002D03*
%TD*%
D11*
%TO.C,SW5*%
X123420000Y-55710000D03*
X125960000Y-69560000D03*
%TD*%
D12*
%TO.C,SW4*%
X115790000Y-56920000D03*
X101940000Y-59460000D03*
%TD*%
D10*
%TO.C,D19*%
X82000001Y-117275000D03*
X81999999Y-113725002D03*
%TD*%
D11*
%TO.C,SW15*%
X132920000Y-93710000D03*
X135460000Y-107560000D03*
%TD*%
D12*
%TO.C,SW14*%
X125290000Y-94920000D03*
X111440000Y-97460000D03*
%TD*%
%TO.C,SW3*%
X96790000Y-56920000D03*
X82940000Y-59460000D03*
%TD*%
%TO.C,SW17*%
X115790000Y-125920000D03*
X101940000Y-128460000D03*
%TD*%
%TO.C,SW11*%
X68290000Y-102920000D03*
X54440000Y-105460000D03*
%TD*%
D10*
%TO.C,D18*%
X89500001Y-117274999D03*
X89499999Y-113725001D03*
%TD*%
%TO.C,D5*%
X70000001Y-97774999D03*
X69999999Y-94225001D03*
%TD*%
D12*
%TO.C,SW7*%
X77790000Y-78920000D03*
X63940000Y-81460000D03*
%TD*%
M02*
