M48
; DRILL file {KiCad 9.0.4} date 2025-11-12T08:08:44+0900
; FORMAT={-:-/ absolute / metric / decimal}
; #@! TF.CreationDate,2025-11-12T08:08:44+09:00
; #@! TF.GenerationSoftware,Kicad,Pcbnew,9.0.4
; #@! TF.FileFunction,NonPlated,1,2,NPTH
FMAT,2
METRIC
; #@! TA.AperFunction,NonPlated,NPTH,ComponentDrill
T1C0.800
; #@! TA.AperFunction,NonPlated,NPTH,ComponentDrill
T2C1.702
; #@! TA.AperFunction,NonPlated,NPTH,ComponentDrill
T3C3.000
; #@! TA.AperFunction,NonPlated,NPTH,ComponentDrill
T4C3.988
%
G90
G05
T1
X119.9Y-116.5
X119.9Y-116.5
X126.9Y-116.5
X126.9Y-116.5
T2
X43.0Y-102.92
X43.0Y-113.08
X50.125Y-64.92
X50.125Y-75.08
X50.125Y-83.92
X50.125Y-94.08
X56.92Y-108.0
X66.42Y-65.0
X66.42Y-84.0
X67.08Y-108.0
X75.92Y-103.0
X76.58Y-65.0
X76.58Y-84.0
X85.42Y-62.0
X85.42Y-81.0
X86.08Y-103.0
X90.5Y-123.92
X90.5Y-134.08
X94.92Y-100.0
X95.58Y-62.0
X95.58Y-81.0
X104.42Y-62.0
X104.42Y-81.0
X104.42Y-131.0
X105.08Y-100.0
X113.92Y-100.0
X114.58Y-62.0
X114.58Y-81.0
X114.58Y-131.0
X124.08Y-100.0
X128.5Y-56.92
X128.5Y-67.08
X128.5Y-75.92
X128.5Y-86.08
X133.25Y-129.92
X133.25Y-140.08
X138.0Y-94.92
X138.0Y-105.08
T3
X45.54Y-104.19
X45.54Y-111.81
X48.08Y-105.46
X48.08Y-110.54
X52.665Y-66.19
X52.665Y-73.81
X52.665Y-85.19
X52.665Y-92.81
X55.205Y-67.46
X55.205Y-72.54
X55.205Y-86.46
X55.205Y-91.54
X58.19Y-105.46
X59.46Y-102.92
X64.54Y-102.92
X65.81Y-105.46
X67.69Y-62.46
X67.69Y-81.46
X68.96Y-59.92
X68.96Y-78.92
X74.04Y-59.92
X74.04Y-78.92
X75.31Y-62.46
X75.31Y-81.46
X77.19Y-100.46
X78.46Y-97.92
X83.54Y-97.92
X84.81Y-100.46
X86.69Y-59.46
X86.69Y-78.46
X87.96Y-56.92
X87.96Y-75.92
X93.04Y-56.92
X93.04Y-75.92
X93.04Y-125.19
X93.04Y-132.81
X94.31Y-59.46
X94.31Y-78.46
X95.58Y-126.46
X95.58Y-131.54
X96.19Y-97.46
X97.46Y-94.92
X102.54Y-94.92
X103.81Y-97.46
X105.69Y-59.46
X105.69Y-78.46
X105.69Y-128.46
X106.96Y-56.92
X106.96Y-75.92
X106.96Y-125.92
X112.04Y-56.92
X112.04Y-75.92
X112.04Y-125.92
X113.31Y-59.46
X113.31Y-78.46
X113.31Y-128.46
X115.19Y-97.46
X116.46Y-94.92
X121.54Y-94.92
X122.81Y-97.46
X123.42Y-59.46
X123.42Y-64.54
X123.42Y-78.46
X123.42Y-83.54
X125.96Y-58.19
X125.96Y-65.81
X125.96Y-77.19
X125.96Y-84.81
X128.17Y-132.46
X128.17Y-137.54
X130.71Y-131.19
X130.71Y-138.81
X132.92Y-97.46
X132.92Y-102.54
X135.46Y-96.19
X135.46Y-103.81
T4
X43.0Y-108.0
X50.125Y-70.0
X50.125Y-89.0
X62.0Y-108.0
X71.5Y-65.0
X71.5Y-84.0
X81.0Y-103.0
X90.5Y-62.0
X90.5Y-81.0
X90.5Y-129.0
X100.0Y-100.0
X109.5Y-62.0
X109.5Y-81.0
X109.5Y-131.0
X119.0Y-100.0
X128.5Y-62.0
X128.5Y-81.0
X133.25Y-135.0
X138.0Y-100.0
M30
