%TF.GenerationSoftware,KiCad,Pcbnew,9.0.4*%
%TF.CreationDate,2025-11-12T08:08:54+09:00*%
%TF.ProjectId,modubu,6d6f6475-6275-42e6-9b69-6361645f7063,rev?*%
%TF.SameCoordinates,Original*%
%TF.FileFunction,Soldermask,Bot*%
%TF.FilePolarity,Negative*%
%FSLAX46Y46*%
G04 Gerber Fmt 4.6, Leading zero omitted, Abs format (unit mm)*
G04 Created by KiCad (PCBNEW 9.0.4) date 2025-11-12 08:08:54*
%MOMM*%
%LPD*%
G01*
G04 APERTURE LIST*
G04 Aperture macros list*
%AMOutline5P*
0 Free polygon, 5 corners , with rotation*
0 The origin of the aperture is its center*
0 number of corners: always 5*
0 $1 to $10 corner X, Y*
0 $11 Rotation angle, in degrees counterclockwise*
0 create outline with 5 corners*
4,1,5,$1,$2,$3,$4,$5,$6,$7,$8,$9,$10,$1,$2,$11*%
%AMOutline6P*
0 Free polygon, 6 corners , with rotation*
0 The origin of the aperture is its center*
0 number of corners: always 6*
0 $1 to $12 corner X, Y*
0 $13 Rotation angle, in degrees counterclockwise*
0 create outline with 6 corners*
4,1,6,$1,$2,$3,$4,$5,$6,$7,$8,$9,$10,$11,$12,$1,$2,$13*%
%AMOutline7P*
0 Free polygon, 7 corners , with rotation*
0 The origin of the aperture is its center*
0 number of corners: always 7*
0 $1 to $14 corner X, Y*
0 $15 Rotation angle, in degrees counterclockwise*
0 create outline with 7 corners*
4,1,7,$1,$2,$3,$4,$5,$6,$7,$8,$9,$10,$11,$12,$13,$14,$1,$2,$15*%
%AMOutline8P*
0 Free polygon, 8 corners , with rotation*
0 The origin of the aperture is its center*
0 number of corners: always 8*
0 $1 to $16 corner X, Y*
0 $17 Rotation angle, in degrees counterclockwise*
0 create outline with 8 corners*
4,1,8,$1,$2,$3,$4,$5,$6,$7,$8,$9,$10,$11,$12,$13,$14,$15,$16,$1,$2,$17*%
%AMFreePoly0*
4,1,6,1.000000,0.000000,0.500000,-0.750000,-0.500000,-0.750000,-0.500000,0.750000,0.500000,0.750000,1.000000,0.000000,1.000000,0.000000,$1*%
%AMFreePoly1*
4,1,6,0.500000,-0.750000,-0.650000,-0.750000,-0.150000,0.000000,-0.650000,0.750000,0.500000,0.750000,0.500000,-0.750000,0.500000,-0.750000,$1*%
G04 Aperture macros list end*
%ADD10R,1.397000X1.397000*%
%ADD11R,0.940000X1.400000*%
%ADD12C,1.397000*%
%ADD13C,1.701800*%
%ADD14C,3.000000*%
%ADD15C,3.987800*%
%ADD16R,2.500000X2.550000*%
%ADD17R,2.550000X2.500000*%
%ADD18O,1.500000X3.000000*%
%ADD19O,3.000000X1.500000*%
%ADD20Outline8P,-1.500000X0.450000X-1.200000X0.750000X1.200000X0.750000X1.500000X0.450000X1.500000X-0.450000X1.200000X-0.750000X-1.200000X-0.750000X-1.500000X-0.450000X90.000000*%
%ADD21R,1.500000X3.000000*%
%ADD22C,0.800000*%
%ADD23O,2.000000X1.600000*%
%ADD24FreePoly0,180.000000*%
%ADD25FreePoly1,180.000000*%
%ADD26FreePoly0,0.000000*%
%ADD27FreePoly1,0.000000*%
G04 APERTURE END LIST*
%TO.C,JP1*%
G36*
X123725000Y-121750000D02*
G01*
X121275000Y-121750000D01*
X121275000Y-123250000D01*
X123725000Y-123250000D01*
X123725000Y-121750000D01*
G37*
%TO.C,JP3*%
G36*
X121275000Y-125750000D02*
G01*
X123725000Y-125750000D01*
X123725000Y-124250000D01*
X121275000Y-124250000D01*
X121275000Y-125750000D01*
G37*
%TD*%
D10*
%TO.C,D8*%
X97000000Y-118309999D03*
D11*
X97000001Y-116274999D03*
X96999999Y-112725001D03*
D12*
X97000000Y-110690001D03*
%TD*%
D10*
%TO.C,D14*%
X112000000Y-118309998D03*
D11*
X112000001Y-116274998D03*
X111999999Y-112725000D03*
D12*
X112000000Y-110690000D03*
%TD*%
D13*
%TO.C,SW19*%
X43000000Y-102920000D03*
D14*
X45540000Y-104190000D03*
X48080000Y-105460000D03*
D15*
X43000000Y-108000000D03*
D14*
X48080000Y-110540000D03*
X45540000Y-111810000D03*
D13*
X43000000Y-113080000D03*
D16*
X48080000Y-114290000D03*
X45540000Y-100440000D03*
%TD*%
D13*
%TO.C,SW1*%
X50125000Y-64920000D03*
D14*
X52665000Y-66190000D03*
X55205000Y-67460000D03*
D15*
X50125000Y-70000000D03*
D14*
X55205000Y-72540000D03*
X52665000Y-73810000D03*
D13*
X50125000Y-75080000D03*
D16*
X55205000Y-76290000D03*
X52665000Y-62440000D03*
%TD*%
D10*
%TO.C,D16*%
X84500000Y-119310001D03*
D11*
X84500001Y-117275001D03*
X84499999Y-113725003D03*
D12*
X84500000Y-111690003D03*
%TD*%
D13*
%TO.C,SW18*%
X133250000Y-140080000D03*
D14*
X130710000Y-138810000D03*
X128170000Y-137540000D03*
D15*
X133250000Y-135000000D03*
D14*
X128170000Y-132460000D03*
X130710000Y-131190000D03*
D13*
X133250000Y-129920000D03*
D16*
X128170000Y-128710000D03*
X130710000Y-142560000D03*
%TD*%
D10*
%TO.C,D9*%
X99500000Y-118309998D03*
D11*
X99500001Y-116274998D03*
X99499999Y-112725000D03*
D12*
X99500000Y-110690000D03*
%TD*%
D10*
%TO.C,D3*%
X65000000Y-99809999D03*
D11*
X65000001Y-97774999D03*
X64999999Y-94225001D03*
D12*
X65000000Y-92190001D03*
%TD*%
D13*
%TO.C,SW8*%
X85420000Y-81000000D03*
D14*
X86690000Y-78460000D03*
X87960000Y-75920000D03*
D15*
X90500000Y-81000000D03*
D14*
X93040000Y-75920000D03*
X94310000Y-78460000D03*
D13*
X95580000Y-81000000D03*
D17*
X96790000Y-75920000D03*
X82940000Y-78460000D03*
%TD*%
D18*
%TO.C,U1*%
X57590000Y-118630000D03*
X60130000Y-118630000D03*
X62670000Y-118630000D03*
X65209999Y-118630000D03*
X67750000Y-118630000D03*
X70290000Y-118630001D03*
X72830000Y-118630000D03*
X75370000Y-118630000D03*
X77909999Y-118630000D03*
D19*
X78659999Y-121919999D03*
X78660000Y-124460000D03*
X78660001Y-127000001D03*
X78660000Y-129540000D03*
X78659999Y-132080000D03*
D18*
X77910000Y-135370000D03*
X75370000Y-135370000D03*
X72830000Y-135370000D03*
X70290001Y-135370000D03*
X67750000Y-135370000D03*
X65210000Y-135369999D03*
D20*
X62670000Y-135370000D03*
D21*
X60130000Y-135370000D03*
D20*
X57590001Y-135370000D03*
%TD*%
D10*
%TO.C,D1*%
X60000000Y-99809999D03*
D11*
X60000001Y-97774999D03*
X59999999Y-94225001D03*
D12*
X60000000Y-92190001D03*
%TD*%
D10*
%TO.C,D6*%
X92000000Y-118309999D03*
D11*
X92000001Y-116274999D03*
X91999999Y-112725001D03*
D12*
X92000000Y-110690001D03*
%TD*%
D10*
%TO.C,D11*%
X104500000Y-118309999D03*
D11*
X104500001Y-116274999D03*
X104499999Y-112725001D03*
D12*
X104500000Y-110690001D03*
%TD*%
D13*
%TO.C,SW12*%
X75920000Y-103000000D03*
D14*
X77190000Y-100460000D03*
X78460000Y-97920000D03*
D15*
X81000000Y-103000000D03*
D14*
X83540000Y-97920000D03*
X84810000Y-100460000D03*
D13*
X86080000Y-103000000D03*
D17*
X87290000Y-97920000D03*
X73440000Y-100460000D03*
%TD*%
D10*
%TO.C,D15*%
X114500000Y-118309999D03*
D11*
X114500001Y-116274999D03*
X114499999Y-112725001D03*
D12*
X114500000Y-110690001D03*
%TD*%
D13*
%TO.C,SW13*%
X94920000Y-100000000D03*
D14*
X96190000Y-97460000D03*
X97460000Y-94920000D03*
D15*
X100000000Y-100000000D03*
D14*
X102540000Y-94920000D03*
X103810000Y-97460000D03*
D13*
X105080000Y-100000000D03*
D17*
X106290000Y-94920000D03*
X92440000Y-97460000D03*
%TD*%
D13*
%TO.C,SW6*%
X50125000Y-83920000D03*
D14*
X52665000Y-85190000D03*
X55205000Y-86460000D03*
D15*
X50125000Y-89000000D03*
D14*
X55205000Y-91540000D03*
X52665000Y-92810000D03*
D13*
X50125000Y-94080000D03*
D16*
X55205000Y-95290000D03*
X52665000Y-81440000D03*
%TD*%
D10*
%TO.C,D12*%
X107000000Y-118310000D03*
D11*
X107000001Y-116275000D03*
X106999999Y-112725002D03*
D12*
X107000000Y-110690002D03*
%TD*%
D13*
%TO.C,SW10*%
X128500000Y-86080000D03*
D14*
X125960000Y-84810000D03*
X123420000Y-83540000D03*
D15*
X128500000Y-81000000D03*
D14*
X123420000Y-78460000D03*
X125960000Y-77190000D03*
D13*
X128500000Y-75920000D03*
D16*
X123420000Y-74710000D03*
X125960000Y-88560000D03*
%TD*%
D10*
%TO.C,D2*%
X62500000Y-99810000D03*
D11*
X62500001Y-97775000D03*
X62499999Y-94225002D03*
D12*
X62500000Y-92190002D03*
%TD*%
D13*
%TO.C,SW16*%
X90500000Y-123920000D03*
D14*
X93040000Y-125190000D03*
X95580000Y-126460000D03*
D15*
X90500000Y-129000000D03*
D14*
X95580000Y-131540000D03*
X93040000Y-132810000D03*
D13*
X90500000Y-134080000D03*
D16*
X95580000Y-135290000D03*
X93040000Y-121440000D03*
%TD*%
D13*
%TO.C,SW9*%
X104420000Y-81000000D03*
D14*
X105690000Y-78460000D03*
X106960000Y-75920000D03*
D15*
X109500000Y-81000000D03*
D14*
X112040000Y-75920000D03*
X113310000Y-78460000D03*
D13*
X114580000Y-81000000D03*
D17*
X115790000Y-75920000D03*
X101940000Y-78460000D03*
%TD*%
D10*
%TO.C,D13*%
X109500000Y-118309999D03*
D11*
X109500001Y-116274999D03*
X109499999Y-112725001D03*
D12*
X109500000Y-110690001D03*
%TD*%
D10*
%TO.C,D10*%
X102000000Y-118309999D03*
D11*
X102000001Y-116274999D03*
X101999999Y-112725001D03*
D12*
X102000000Y-110690001D03*
%TD*%
D10*
%TO.C,D7*%
X94500000Y-118310000D03*
D11*
X94500001Y-116275000D03*
X94499999Y-112725002D03*
D12*
X94500000Y-110690002D03*
%TD*%
D10*
%TO.C,D4*%
X67500000Y-99809998D03*
D11*
X67500001Y-97774998D03*
X67499999Y-94225000D03*
D12*
X67500000Y-92190000D03*
%TD*%
D13*
%TO.C,SW2*%
X66420000Y-65000000D03*
D14*
X67690000Y-62460000D03*
X68960000Y-59920000D03*
D15*
X71500000Y-65000000D03*
D14*
X74040000Y-59920000D03*
X75310000Y-62460000D03*
D13*
X76580000Y-65000000D03*
D17*
X77790000Y-59920000D03*
X63940000Y-62460000D03*
%TD*%
D10*
%TO.C,D17*%
X87000000Y-119310000D03*
D11*
X87000001Y-117275000D03*
X86999999Y-113725002D03*
D12*
X87000000Y-111690002D03*
%TD*%
D13*
%TO.C,SW5*%
X128500000Y-67080000D03*
D14*
X125960000Y-65810000D03*
X123420000Y-64540000D03*
D15*
X128500000Y-62000000D03*
D14*
X123420000Y-59460000D03*
X125960000Y-58190000D03*
D13*
X128500000Y-56920000D03*
D16*
X123420000Y-55710000D03*
X125960000Y-69560000D03*
%TD*%
D13*
%TO.C,SW4*%
X104420000Y-62000000D03*
D14*
X105690000Y-59460000D03*
X106960000Y-56920000D03*
D15*
X109500000Y-62000000D03*
D14*
X112040000Y-56920000D03*
X113310000Y-59460000D03*
D13*
X114580000Y-62000000D03*
D17*
X115790000Y-56920000D03*
X101940000Y-59460000D03*
%TD*%
D10*
%TO.C,D19*%
X82000000Y-119310000D03*
D11*
X82000001Y-117275000D03*
X81999999Y-113725002D03*
D12*
X82000000Y-111690002D03*
%TD*%
D13*
%TO.C,SW15*%
X138000000Y-105080000D03*
D14*
X135460000Y-103810000D03*
X132920000Y-102540000D03*
D15*
X138000000Y-100000000D03*
D14*
X132920000Y-97460000D03*
X135460000Y-96190000D03*
D13*
X138000000Y-94920000D03*
D16*
X132920000Y-93710000D03*
X135460000Y-107560000D03*
%TD*%
D13*
%TO.C,SW14*%
X113920000Y-100000000D03*
D14*
X115190000Y-97460000D03*
X116460000Y-94920000D03*
D15*
X119000000Y-100000000D03*
D14*
X121540000Y-94920000D03*
X122810000Y-97460000D03*
D13*
X124080000Y-100000000D03*
D17*
X125290000Y-94920000D03*
X111440000Y-97460000D03*
%TD*%
D13*
%TO.C,SW3*%
X85420000Y-62000000D03*
D14*
X86690000Y-59460000D03*
X87960000Y-56920000D03*
D15*
X90500000Y-62000000D03*
D14*
X93040000Y-56920000D03*
X94310000Y-59460000D03*
D13*
X95580000Y-62000000D03*
D17*
X96790000Y-56920000D03*
X82940000Y-59460000D03*
%TD*%
D13*
%TO.C,SW17*%
X104420000Y-131000000D03*
D14*
X105690000Y-128460000D03*
X106960000Y-125920000D03*
D15*
X109500000Y-131000000D03*
D14*
X112040000Y-125920000D03*
X113310000Y-128460000D03*
D13*
X114580000Y-131000000D03*
D17*
X115790000Y-125920000D03*
X101940000Y-128460000D03*
%TD*%
D13*
%TO.C,SW11*%
X56920000Y-108000000D03*
D14*
X58190000Y-105460000D03*
X59460000Y-102920000D03*
D15*
X62000000Y-108000000D03*
D14*
X64540000Y-102920000D03*
X65810000Y-105460000D03*
D13*
X67080000Y-108000000D03*
D17*
X68290000Y-102920000D03*
X54440000Y-105460000D03*
%TD*%
D10*
%TO.C,D18*%
X89500000Y-119309999D03*
D11*
X89500001Y-117274999D03*
X89499999Y-113725001D03*
D12*
X89500000Y-111690001D03*
%TD*%
D22*
%TO.C,J1*%
X126900001Y-116499997D03*
X119900000Y-116500000D03*
D23*
X122300001Y-118800001D03*
X125299999Y-118799999D03*
X117199998Y-114200001D03*
X118300000Y-118800003D03*
%TD*%
D10*
%TO.C,D5*%
X70000000Y-99809999D03*
D11*
X70000001Y-97774999D03*
X69999999Y-94225001D03*
D12*
X70000000Y-92190001D03*
%TD*%
D13*
%TO.C,SW7*%
X66420000Y-84000000D03*
D14*
X67690000Y-81460000D03*
X68960000Y-78920000D03*
D15*
X71500000Y-84000000D03*
D14*
X74040000Y-78920000D03*
X75310000Y-81460000D03*
D13*
X76580000Y-84000000D03*
D17*
X77790000Y-78920000D03*
X63940000Y-81460000D03*
%TD*%
D24*
%TO.C,JP1*%
X123225000Y-122500000D03*
D25*
X121775000Y-122500000D03*
%TD*%
D26*
%TO.C,JP3*%
X121775000Y-125000000D03*
D27*
X123225000Y-125000000D03*
%TD*%
D22*
%TO.C,J2*%
X126900003Y-116500002D03*
X119900000Y-116500000D03*
D23*
X122300001Y-114199999D03*
X125299999Y-114200001D03*
X117199999Y-118800001D03*
X118300000Y-114199997D03*
%TD*%
M02*
