%TF.GenerationSoftware,KiCad,Pcbnew,9.0.4*%
%TF.CreationDate,2025-11-12T08:08:54+09:00*%
%TF.ProjectId,modubu,6d6f6475-6275-42e6-9b69-6361645f7063,rev?*%
%TF.SameCoordinates,Original*%
%TF.FileFunction,Profile,NP*%
%FSLAX46Y46*%
G04 Gerber Fmt 4.6, Leading zero omitted, Abs format (unit mm)*
G04 Created by KiCad (PCBNEW 9.0.4) date 2025-11-12 08:08:54*
%MOMM*%
%LPD*%
G01*
G04 APERTURE LIST*
%TA.AperFunction,Profile*%
%ADD10C,0.050000*%
%TD*%
%TA.AperFunction,Profile*%
%ADD11C,0.100000*%
%TD*%
G04 APERTURE END LIST*
D10*
X118500000Y-140500000D02*
G75*
G02*
X119000000Y-141000000I0J-500000D01*
G01*
X55500000Y-133750000D02*
X56000000Y-133750000D01*
X129000000Y-123500000D02*
G75*
G02*
X128500000Y-123000000I0J500000D01*
G01*
X128500000Y-110000000D02*
G75*
G02*
X129000000Y-109500000I500000J0D01*
G01*
X81000000Y-52500000D02*
X140500000Y-52500000D01*
X140500000Y-123500000D02*
X140500000Y-144500000D01*
X100000000Y-140500000D02*
X100000000Y-139000000D01*
X125500000Y-110500000D02*
G75*
G02*
X121500000Y-110500000I-2000000J0D01*
G01*
X121500000Y-110500000D02*
G75*
G02*
X125500000Y-110500000I2000000J0D01*
G01*
X73500000Y-113500000D02*
G75*
G02*
X69500000Y-113500000I-2000000J0D01*
G01*
X69500000Y-113500000D02*
G75*
G02*
X73500000Y-113500000I2000000J0D01*
G01*
X55000000Y-117500000D02*
X40500000Y-117500000D01*
X40500000Y-117500000D02*
X40500000Y-60500000D01*
X140500000Y-109500000D02*
X129000000Y-109500000D01*
X62000000Y-60000000D02*
X62000000Y-55500000D01*
X81000000Y-55000000D02*
X81000000Y-52500000D01*
X120500000Y-71500000D02*
G75*
G02*
X116500000Y-71500000I-2000000J0D01*
G01*
X116500000Y-71500000D02*
G75*
G02*
X120500000Y-71500000I2000000J0D01*
G01*
X99500000Y-138500000D02*
X55500000Y-138500000D01*
X63500000Y-69500000D02*
G75*
G02*
X59500000Y-69500000I-2000000J0D01*
G01*
X59500000Y-69500000D02*
G75*
G02*
X63500000Y-69500000I2000000J0D01*
G01*
X55500000Y-120250000D02*
X56000000Y-120250000D01*
X55500000Y-138500000D02*
X55500000Y-133750000D01*
X119000000Y-144500000D02*
X119000000Y-141000000D01*
X81000000Y-55000000D02*
G75*
G02*
X80500000Y-55500000I-500000J0D01*
G01*
X62000000Y-55500000D02*
X80500000Y-55500000D01*
X55500000Y-118000000D02*
X55500000Y-120250000D01*
X118500000Y-140500000D02*
X100000000Y-140500000D01*
X55000000Y-117500000D02*
G75*
G02*
X55500000Y-118000000I0J-500000D01*
G01*
X40500000Y-60500000D02*
X61500000Y-60500000D01*
X99500000Y-138500000D02*
G75*
G02*
X100000000Y-139000000I0J-500000D01*
G01*
X128500000Y-110000000D02*
X128500000Y-123000000D01*
X140500000Y-144500000D02*
X119000000Y-144500000D01*
X123500000Y-135500000D02*
G75*
G02*
X119500000Y-135500000I-2000000J0D01*
G01*
X119500000Y-135500000D02*
G75*
G02*
X123500000Y-135500000I2000000J0D01*
G01*
X62000000Y-60000000D02*
G75*
G02*
X61500000Y-60500000I-500000J0D01*
G01*
X129000000Y-123500000D02*
X140500000Y-123500000D01*
X140500000Y-52500000D02*
X140500000Y-109500000D01*
D11*
%TO.C,U1*%
X56000000Y-133749999D02*
X76500000Y-133750001D01*
X76499999Y-120250000D02*
X55999999Y-120250000D01*
X77000000Y-133250000D02*
X77000000Y-120750000D01*
X76499999Y-120250000D02*
G75*
G02*
X77000000Y-120750000I1J-500000D01*
G01*
X77000000Y-133250000D02*
G75*
G02*
X76500000Y-133750001I-500006J5D01*
G01*
%TD*%
M02*
